<svg xmlns="http://www.w3.org/2000/svg" id="diagram" width="828" height="792">
  <defs>
    <clipPath id="clipPath-0">
      <rect x="5.0" y="5.0" width="500.0" height="300.0"/>
    </clipPath>
    <clipPath id="clipPath-1">
      <rect x="43.4" y="86.6" width="741.2" height="444.7"/>
    </clipPath>
    <marker id="arrow-head-2" markerWidth="18.0" markerHeight="16.8" markerUnits="userSpaceOnUse" orient="auto-start-reverse" refX="13.5" refY="8.4">
      <path d="M 18.0 8.4 L 0.0 16.8 L 0.0 0.0 Z" fill="context-stroke" stroke="context-none"/>
    </marker>
    <marker id="arrow-head-2-outline" markerWidth="36.0" markerHeight="34.8" markerUnits="userSpaceOnUse" orient="auto-start-reverse" refX="22.5" refY="17.4">
      <path d="M 30.8 25.6 L 12.8 33.9 A 9 9 0 0 1 0.0 25.8 L 0.0 9.0 A 9 9 0 0 1 12.8 0.8 L 30.8 9.2 A 9 9 0 0 1 30.8 25.6 Z" fill="context-stroke" stroke="context-none"/>
    </marker>
    <line id="line-1-outline" x1="87.9" y1="234.8" x2="267.8" y2="234.8"/>
    <line id="line-3-outline" x1="339.9" y1="234.8" x2="564.3" y2="234.8"/>
    <line id="line-5-outline" x1="636.4" y1="234.8" x2="539.1" y2="332.1"/>
    <line id="line-7-outline" x1="488.1" y1="383.1" x2="390.8" y2="285.8"/>
    <path id="path-1-outline" d="M 339.9 234.8 C 243.9 234.8 243.9 90.8 339.9 90.8 C 387.9 90.8 411.9 126.9 411.9 162.8 C 411.9 171.8 410.4 180.8 407.4 189.3 C 406.6 191.4 405.8 193.5 404.9 195.5 C 404.4 196.5 403.9 197.5 403.4 198.5" clip-path="url(#clipPath-1)"/>
    <path id="path-3-outline" d="M 636.4 234.8 C 599.6 146.2 732.7 91.1 769.4 179.7 C 787.8 224.1 763.7 260.0 730.4 273.8 C 722.1 277.3 713.2 279.3 704.3 279.8 C 702.0 279.9 699.8 279.9 697.6 279.8 C 696.5 279.8 695.3 279.7 694.2 279.6" clip-path="url(#clipPath-1)"/>
    <path id="path-5-outline" d="M 488.1 383.1 C 584.1 383.1 584.1 527.1 488.1 527.1 C 440.1 527.1 416.1 491.1 416.1 455.1 C 416.1 446.1 417.6 437.1 420.6 428.6 C 421.4 426.5 422.2 424.5 423.1 422.4 C 423.6 421.4 424.1 420.4 424.6 419.4" clip-path="url(#clipPath-1)"/>
    <polygon id="point-0-outline" points="87.9,150.8 171.9,234.8 87.9,318.8 3.9,234.8"/>
    <path id="point-1-outline" d="M 279.9 234.8A 60 60 0 0 0 399.9 234.8 A 60 60 0 0 0 279.9 234.8 Z M 288.9 234.8A 51.0 51.0 0 0 0 390.9 234.8 A 51.0 51.0 0 0 0 288.9 234.8 Z "/>
    <circle id="point-2-outline" cx="636.4" cy="234.8" r="60"/>
    <circle id="point-3-outline" cx="488.1" cy="383.1" r="60"/>
  </defs>
  <g id="g-0">
    <g id="g-1">
      <use fill="none" stroke-width="20" stroke="white" href="#line-1-outline" marker-end="url(#arrow-head-2-outline)"/>
      <use fill="none" stroke-width="20" stroke="white" href="#line-3-outline" marker-end="url(#arrow-head-2-outline)"/>
      <use fill="none" stroke-width="20" stroke="white" href="#line-5-outline" marker-end="url(#arrow-head-2-outline)"/>
      <use fill="none" stroke-width="20" stroke="white" href="#line-7-outline" marker-end="url(#arrow-head-2-outline)"/>
      <use fill="none" stroke-width="20" stroke="white" href="#path-1-outline" marker-end="url(#arrow-head-2-outline)"/>
      <use fill="none" stroke-width="20" stroke="white" href="#path-3-outline" marker-end="url(#arrow-head-2-outline)"/>
      <use fill="none" stroke-width="20" stroke="white" href="#path-5-outline" marker-end="url(#arrow-head-2-outline)"/>
    </g>
    <g id="g-2">
      <use id="line-1" fill="none" stroke-width="2" stroke="black" stroke-dasharray="none" href="#line-1-outline" marker-end="url(#arrow-head-2)"/>
      <use id="line-3" fill="none" stroke-width="2" stroke="black" stroke-dasharray="none" href="#line-3-outline" marker-end="url(#arrow-head-2)"/>
      <use id="line-5" fill="none" stroke-width="2" stroke="black" stroke-dasharray="none" href="#line-5-outline" marker-end="url(#arrow-head-2)"/>
      <use id="line-7" fill="none" stroke-width="2" stroke="black" stroke-dasharray="none" href="#line-7-outline" marker-end="url(#arrow-head-2)"/>
      <use id="path-1" fill="none" stroke-width="2" stroke="black" stroke-dasharray="none" href="#path-1-outline" marker-end="url(#arrow-head-2)"/>
      <use id="path-3" fill="none" stroke-width="2" stroke="black" stroke-dasharray="none" href="#path-3-outline" marker-end="url(#arrow-head-2)"/>
      <use id="path-5" fill="none" stroke-width="2" stroke="black" stroke-dasharray="none" href="#path-5-outline" marker-end="url(#arrow-head-2)"/>
    </g>
    <g id="g-3">
      <use fill="white" stroke-width="19" stroke="white" href="#point-0-outline"/>
      <use fill="white" stroke-width="19" stroke="white" href="#point-1-outline"/>
      <use fill="white" stroke-width="19" stroke="white" href="#point-2-outline"/>
      <use fill="white" stroke-width="19" stroke="white" href="#point-3-outline"/>
    </g>
    <g id="g-4">
      <use id="point-0" fill="white" stroke-width="1" stroke="black" stroke-dasharray="none" href="#point-0-outline"/>
      <use id="point-1" fill="white" stroke-width="1" stroke="black" stroke-dasharray="none" href="#point-1-outline"/>
      <use id="point-2" fill="white" stroke-width="1" stroke="black" stroke-dasharray="none" href="#point-2-outline"/>
      <use id="point-3" fill="white" stroke-width="1" stroke="black" stroke-dasharray="none" href="#point-3-outline"/>
    </g>
  </g>
  <g id="background-group">
    <rect id="label-0-background" x="462.6" y="243.0" width="54.0" height="36.0" stroke="none" fill="white"/>
    <rect id="label-1-background" x="505.8" y="271.8" width="54.0" height="36.0" stroke="none" fill="white"/>
    <rect id="label-2-background" x="419.4" y="271.8" width="54.0" height="36.0" stroke="none" fill="white"/>
    <rect id="label-3-background" x="311.4" y="48.6" width="54.0" height="36.0" stroke="none" fill="white"/>
    <rect id="label-4-background" x="775.8" y="160.2" width="54.0" height="36.0" stroke="none" fill="white"/>
    <rect id="label-5-background" x="462.6" y="534.6" width="54.0" height="36.0" stroke="none" fill="white"/>
    <rect id="100-background" x="23.4" y="217.8" width="126.0" height="36.0" stroke="none" fill="white"/>
    <rect id="0-background" x="311.4" y="217.8" width="54.0" height="36.0" stroke="none" fill="white"/>
    <rect id="1-background" x="610.2" y="217.8" width="54.0" height="36.0" stroke="none" fill="white"/>
    <rect id="2-background" x="462.6" y="365.4" width="54.0" height="36.0" stroke="none" fill="white"/>
  </g>
  <g id="braille-group">
    <g id="label-0" transform="translate(471.6,270.0)">
      <text x="0.0" y="0.0" font-family="Braille29" font-size="29px">⠰⠁</text>
    </g>
    <g id="label-1" transform="translate(514.8,298.8)">
      <text x="0.0" y="0.0" font-family="Braille29" font-size="29px">⠰⠁</text>
    </g>
    <g id="label-2" transform="translate(428.4,298.8)">
      <text x="0.0" y="0.0" font-family="Braille29" font-size="29px">⠰⠁</text>
    </g>
    <g id="label-3" transform="translate(320.4,75.6)">
      <text x="0.0" y="0.0" font-family="Braille29" font-size="29px">⠰⠃</text>
    </g>
    <g id="label-4" transform="translate(784.8,187.2)">
      <text x="0.0" y="0.0" font-family="Braille29" font-size="29px">⠰⠃</text>
    </g>
    <g id="label-5" transform="translate(471.6,561.6)">
      <text x="0.0" y="0.0" font-family="Braille29" font-size="29px">⠰⠃</text>
    </g>
    <g id="100" transform="translate(32.4,244.8)">
      <text x="0.0" y="0.0" font-family="Braille29" font-size="29px">⠠⠎⠞⠁⠗⠞</text>
    </g>
    <g id="0" transform="translate(320.4,244.8)">
      <text x="0.0" y="0.0" font-family="Braille29" font-size="29px">⠟⠴</text>
    </g>
    <g id="1" transform="translate(619.2,244.8)">
      <text x="0.0" y="0.0" font-family="Braille29" font-size="29px">⠟⠂</text>
    </g>
    <g id="2" transform="translate(471.6,392.4)">
      <text x="0.0" y="0.0" font-family="Braille29" font-size="29px">⠟⠆</text>
    </g>
  </g>
  <text x="144" y="50.4" font-family="Braille29" font-size="29px">⠸⠩ </text>
  <text x="36" y="583.2" font-family="Braille29" font-size="29px">⠸⠱ </text>
</svg>
