<svg xmlns="http://www.w3.org/2000/svg" id="diagram" width="828" height="792">
  <defs>
    <clipPath id="clipPath-0">
      <rect x="5.0" y="5.0" width="500.0" height="300.0"/>
    </clipPath>
    <clipPath id="clipPath-1">
      <rect x="43.4" y="86.6" width="741.2" height="444.7"/>
    </clipPath>
    <path id="path-1-outline" d="M 98.3 118.4 Q 153.2 118.4 208.1 118.4 Q 263.0 118.4 317.9 118.4" clip-path="url(#clipPath-1)"/>
    <path id="path-3-outline" d="M 98.3 118.4 Q 125.8 166.0 153.2 213.7 Q 180.7 261.3 208.1 309.0" clip-path="url(#clipPath-1)"/>
    <path id="path-5-outline" d="M 317.9 118.4 Q 372.8 118.4 427.7 118.4 Q 482.6 118.4 537.5 118.4" clip-path="url(#clipPath-1)"/>
    <path id="path-7-outline" d="M 537.5 118.4 Q 592.4 118.4 647.3 118.4 Q 702.2 118.4 757.1 118.4" clip-path="url(#clipPath-1)"/>
    <path id="path-9-outline" d="M 537.5 118.4 Q 482.6 146.2 427.7 174.0 Q 372.8 201.8 317.9 229.6" clip-path="url(#clipPath-1)"/>
    <path id="path-11-outline" d="M 757.1 118.4 Q 661.1 213.7 565.0 309.0 Q 468.9 404.3 372.8 499.6" clip-path="url(#clipPath-1)"/>
    <path id="path-13-outline" d="M 208.1 309.0 Q 235.6 289.1 263.0 269.3 Q 290.5 249.4 317.9 229.6" clip-path="url(#clipPath-1)"/>
    <path id="path-15-outline" d="M 208.1 309.0 Q 249.3 356.6 290.5 404.3 Q 331.6 451.9 372.8 499.6" clip-path="url(#clipPath-1)"/>
    <path id="path-17-outline" d="M 317.9 229.6 Q 427.7 201.8 537.5 174.0 Q 647.3 146.2 757.1 118.4" clip-path="url(#clipPath-1)"/>
    <path id="path-19-outline" d="M 317.9 229.6 Q 331.6 297.1 345.4 364.6 Q 359.1 432.1 372.8 499.6" clip-path="url(#clipPath-1)"/>
    <circle id="point-0-outline" cx="98.3" cy="118.4" r="40"/>
    <circle id="point-1-outline" cx="317.9" cy="118.4" r="40"/>
    <circle id="point-2-outline" cx="537.5" cy="118.4" r="40"/>
    <circle id="point-3-outline" cx="757.1" cy="118.4" r="40"/>
    <circle id="point-4-outline" cx="208.1" cy="309.0" r="40"/>
    <circle id="point-5-outline" cx="317.9" cy="229.6" r="40"/>
    <circle id="point-6-outline" cx="372.8" cy="499.6" r="40"/>
  </defs>
  <g id="g-0">
    <g id="g-1">
      <use fill="none" stroke-width="20" stroke="white" href="#path-1-outline"/>
      <use fill="none" stroke-width="20" stroke="white" href="#path-3-outline"/>
      <use fill="none" stroke-width="20" stroke="white" href="#path-5-outline"/>
      <use fill="none" stroke-width="20" stroke="white" href="#path-7-outline"/>
      <use fill="none" stroke-width="20" stroke="white" href="#path-9-outline"/>
      <use fill="none" stroke-width="20" stroke="white" href="#path-11-outline"/>
      <use fill="none" stroke-width="20" stroke="white" href="#path-13-outline"/>
      <use fill="none" stroke-width="20" stroke="white" href="#path-15-outline"/>
      <use fill="none" stroke-width="20" stroke="white" href="#path-17-outline"/>
      <use fill="none" stroke-width="20" stroke="white" href="#path-19-outline"/>
    </g>
    <g id="g-2">
      <use id="path-1" fill="none" stroke-width="2" stroke="black" stroke-dasharray="none" href="#path-1-outline"/>
      <use id="path-3" fill="none" stroke-width="2" stroke="black" stroke-dasharray="none" href="#path-3-outline"/>
      <use id="path-5" fill="none" stroke-width="2" stroke="black" stroke-dasharray="none" href="#path-5-outline"/>
      <use id="path-7" fill="none" stroke-width="2" stroke="black" stroke-dasharray="none" href="#path-7-outline"/>
      <use id="path-9" fill="none" stroke-width="2" stroke="black" stroke-dasharray="none" href="#path-9-outline"/>
      <use id="path-11" fill="none" stroke-width="2" stroke="black" stroke-dasharray="none" href="#path-11-outline"/>
      <use id="path-13" fill="none" stroke-width="2" stroke="black" stroke-dasharray="none" href="#path-13-outline"/>
      <use id="path-15" fill="none" stroke-width="2" stroke="black" stroke-dasharray="none" href="#path-15-outline"/>
      <use id="path-17" fill="none" stroke-width="2" stroke="black" stroke-dasharray="none" href="#path-17-outline"/>
      <use id="path-19" fill="none" stroke-width="2" stroke="black" stroke-dasharray="none" href="#path-19-outline"/>
    </g>
    <g id="g-3">
      <use fill="white" stroke-width="19" stroke="white" href="#point-0-outline"/>
      <use fill="white" stroke-width="19" stroke="white" href="#point-1-outline"/>
      <use fill="white" stroke-width="19" stroke="white" href="#point-2-outline"/>
      <use fill="white" stroke-width="19" stroke="white" href="#point-3-outline"/>
      <use fill="white" stroke-width="19" stroke="white" href="#point-4-outline"/>
      <use fill="white" stroke-width="19" stroke="white" href="#point-5-outline"/>
      <use fill="white" stroke-width="19" stroke="white" href="#point-6-outline"/>
    </g>
    <g id="g-4">
      <use id="point-0" fill="white" stroke-width="1" stroke="black" stroke-dasharray="none" href="#point-0-outline"/>
      <use id="point-1" fill="white" stroke-width="1" stroke="black" stroke-dasharray="none" href="#point-1-outline"/>
      <use id="point-2" fill="white" stroke-width="1" stroke="black" stroke-dasharray="none" href="#point-2-outline"/>
      <use id="point-3" fill="white" stroke-width="1" stroke="black" stroke-dasharray="none" href="#point-3-outline"/>
      <use id="point-4" fill="white" stroke-width="1" stroke="black" stroke-dasharray="none" href="#point-4-outline"/>
      <use id="point-5" fill="white" stroke-width="1" stroke="black" stroke-dasharray="none" href="#point-5-outline"/>
      <use id="point-6" fill="white" stroke-width="1" stroke="black" stroke-dasharray="none" href="#point-6-outline"/>
    </g>
  </g>
  <g id="background-group">
    <rect id="label-0-background" x="70.2" y="99.0" width="54.0" height="36.0" stroke="none" fill="white"/>
    <rect id="label-1-background" x="289.8" y="99.0" width="54.0" height="36.0" stroke="none" fill="white"/>
    <rect id="label-2-background" x="509.4" y="99.0" width="54.0" height="36.0" stroke="none" fill="white"/>
    <rect id="label-3-background" x="729.0" y="99.0" width="54.0" height="36.0" stroke="none" fill="white"/>
    <rect id="label-4-background" x="181.8" y="289.8" width="54.0" height="36.0" stroke="none" fill="white"/>
    <rect id="label-5-background" x="289.8" y="210.6" width="54.0" height="36.0" stroke="none" fill="white"/>
    <rect id="label-6-background" x="347.4" y="480.6" width="54.0" height="36.0" stroke="none" fill="white"/>
  </g>
  <g id="braille-group">
    <g id="label-0" transform="translate(79.2,126.0)">
      <text x="0.0" y="0.0" font-family="Braille29" font-size="29px">⠼⠴</text>
    </g>
    <g id="label-1" transform="translate(298.8,126.0)">
      <text x="0.0" y="0.0" font-family="Braille29" font-size="29px">⠼⠂</text>
    </g>
    <g id="label-2" transform="translate(518.4,126.0)">
      <text x="0.0" y="0.0" font-family="Braille29" font-size="29px">⠼⠆</text>
    </g>
    <g id="label-3" transform="translate(738.0,126.0)">
      <text x="0.0" y="0.0" font-family="Braille29" font-size="29px">⠼⠒</text>
    </g>
    <g id="label-4" transform="translate(190.8,316.8)">
      <text x="0.0" y="0.0" font-family="Braille29" font-size="29px">⠼⠲</text>
    </g>
    <g id="label-5" transform="translate(298.8,237.6)">
      <text x="0.0" y="0.0" font-family="Braille29" font-size="29px">⠼⠢</text>
    </g>
    <g id="label-6" transform="translate(356.4,507.6)">
      <text x="0.0" y="0.0" font-family="Braille29" font-size="29px">⠼⠖</text>
    </g>
  </g>
  <text x="144" y="50.4" font-family="Braille29" font-size="29px">⠸⠩ </text>
  <text x="36" y="583.2" font-family="Braille29" font-size="29px">⠸⠱ </text>
</svg>
